<mxfile host="app.diagrams.net" agent="Mozilla/5.0 (Windows NT 10.0; Win64; x64) AppleWebKit/537.36 (KHTML, like Gecko) Chrome/141.0.0.0 Safari/537.36" version="28.2.8">
  <diagram id="bai8" name="Bai8">
    <mxGraphModel dx="1830" dy="753" grid="1" gridSize="10" guides="1" tooltips="1" connect="1" arrows="1" fold="1" page="1" pageScale="1" pageWidth="1169" pageHeight="827" math="0" shadow="0">
      <root>
        <mxCell id="0" />
        <mxCell id="1" parent="0" />
        <mxCell id="shopBoundary" value="" style="shape=rectangle;whiteSpace=wrap;html=1;strokeWidth=2;rounded=0;" parent="1" vertex="1">
          <mxGeometry x="195" y="90" width="780" height="540" as="geometry" />
        </mxCell>
        <mxCell id="uc_login8" value="Đăng nhập" style="ellipse;whiteSpace=wrap;html=1;aspect=fixed;" parent="shopBoundary" vertex="1">
          <mxGeometry x="145" y="30" width="125.71" height="55" as="geometry" />
        </mxCell>
        <mxCell id="uc_search8" value="Tìm kiếm sản phẩm" style="ellipse;whiteSpace=wrap;html=1;aspect=fixed;" parent="shopBoundary" vertex="1">
          <mxGeometry x="132.85" y="100" width="150" height="50" as="geometry" />
        </mxCell>
        <mxCell id="uc_add_cart8" value="Thêm vào giỏ hàng" style="ellipse;whiteSpace=wrap;html=1;aspect=fixed;" parent="shopBoundary" vertex="1">
          <mxGeometry x="120.71000000000001" y="160" width="150" height="50" as="geometry" />
        </mxCell>
        <mxCell id="uc_order8" value="Đặt hàng" style="ellipse;whiteSpace=wrap;html=1;aspect=fixed;" parent="shopBoundary" vertex="1">
          <mxGeometry x="95" y="330" width="160" height="70" as="geometry" />
        </mxCell>
        <mxCell id="uc_payment8" value="Thanh toán" style="ellipse;whiteSpace=wrap;html=1;aspect=fixed;" parent="shopBoundary" vertex="1">
          <mxGeometry x="355" y="370" width="160" height="70" as="geometry" />
        </mxCell>
        <mxCell id="include_payment8" value="«include»" style="endArrow=open;dashed=1;html=1;fontSize=12;labelBackgroundColor=#ffffff;" parent="shopBoundary" source="uc_order8" target="uc_payment8" edge="1">
          <mxGeometry relative="1" as="geometry">
            <mxPoint y="-10" as="offset" />
          </mxGeometry>
        </mxCell>
        <mxCell id="oFM-kXmUecaYmRGcSmyj-1" value="Hệ thống Shopee" style="text;html=1;whiteSpace=wrap;strokeColor=none;fillColor=none;align=center;verticalAlign=middle;rounded=0;" vertex="1" parent="shopBoundary">
          <mxGeometry x="310" y="30" width="160" height="30" as="geometry" />
        </mxCell>
        <mxCell id="actor_buyer" value="Khách hàng" style="shape=umlActor;verticalLabelPosition=bottom;verticalAlign=top;html=1;" parent="1" vertex="1">
          <mxGeometry x="60" y="160" width="40" height="80" as="geometry" />
        </mxCell>
        <mxCell id="actor_seller" value="Người bán" style="shape=umlActor;verticalLabelPosition=bottom;verticalAlign=top;html=1;" parent="1" vertex="1">
          <mxGeometry x="60" y="340" width="40" height="80" as="geometry" />
        </mxCell>
        <mxCell id="actor_payment_gateway" value="Cổng thanh toán" style="shape=umlActor;verticalLabelPosition=bottom;verticalAlign=top;html=1;" parent="1" vertex="1">
          <mxGeometry x="60" y="520" width="40" height="80" as="geometry" />
        </mxCell>
        <mxCell id="assoc_buyer_login" style="endArrow=none;html=1;" parent="1" source="actor_buyer" target="uc_login8" edge="1">
          <mxGeometry relative="1" as="geometry" />
        </mxCell>
        <mxCell id="assoc_buyer_search" style="endArrow=none;html=1;" parent="1" source="actor_buyer" target="uc_search8" edge="1">
          <mxGeometry relative="1" as="geometry" />
        </mxCell>
        <mxCell id="assoc_buyer_addcart" style="endArrow=none;html=1;" parent="1" source="actor_buyer" target="uc_add_cart8" edge="1">
          <mxGeometry relative="1" as="geometry" />
        </mxCell>
        <mxCell id="assoc_buyer_order" style="endArrow=none;html=1;" parent="1" source="actor_buyer" target="uc_order8" edge="1">
          <mxGeometry relative="1" as="geometry" />
        </mxCell>
        <mxCell id="assoc_buyer_payment8" style="endArrow=none;html=1;" parent="1" source="actor_buyer" target="uc_payment8" edge="1">
          <mxGeometry relative="1" as="geometry" />
        </mxCell>
        <mxCell id="assoc_seller_order" style="endArrow=none;html=1;" parent="1" source="actor_seller" target="uc_order8" edge="1">
          <mxGeometry relative="1" as="geometry" />
        </mxCell>
        <mxCell id="assoc_gateway_payment" style="endArrow=none;html=1;" parent="1" source="actor_payment_gateway" target="uc_payment8" edge="1">
          <mxGeometry relative="1" as="geometry" />
        </mxCell>
      </root>
    </mxGraphModel>
  </diagram>
</mxfile>
